<svg width="50" height="50" viewBox="0 0 50 50" fill="none" xmlns="http://www.w3.org/2000/svg">
<rect opacity="0.88" x="0.5" y="0.5" width="49" height="49" rx="4.5" stroke="#8C8989"/>
<path d="M35.2498 26.705H26.7082V35.2467C26.7082 35.6997 26.5282 36.1343 26.2078 36.4546C25.8874 36.775 25.4529 36.955 24.9998 36.955C24.5468 36.955 24.1122 36.775 23.7919 36.4546C23.4715 36.1343 23.2915 35.6997 23.2915 35.2467V26.705H14.7498C14.2968 26.705 13.8622 26.525 13.5419 26.2046C13.2215 25.8843 13.0415 25.4497 13.0415 24.9967C13.0415 24.5436 13.2215 24.1091 13.5419 23.7887C13.8622 23.4683 14.2968 23.2883 14.7498 23.2883H23.2915V14.7467C23.2915 14.2936 23.4715 13.8591 23.7919 13.5387C24.1122 13.2183 24.5468 13.0383 24.9998 13.0383C25.4529 13.0383 25.8874 13.2183 26.2078 13.5387C26.5282 13.8591 26.7082 14.2936 26.7082 14.7467V23.2883H35.2498C35.7029 23.2883 36.1374 23.4683 36.4578 23.7887C36.7782 24.1091 36.9582 24.5436 36.9582 24.9967C36.9582 25.4497 36.7782 25.8843 36.4578 26.2046C36.1374 26.525 35.7029 26.705 35.2498 26.705Z" fill="#343434"/>
</svg>
