<svg width="21" height="21" viewBox="0 0 21 21" fill="none" xmlns="http://www.w3.org/2000/svg">
<g id="book">
<g id="icon">
<path d="M6.19148 6.0308C6.19148 5.55499 6.57721 5.16926 7.05302 5.16926H13.9453C14.4211 5.16926 14.8069 5.55499 14.8069 6.0308C14.8069 6.50662 14.4211 6.89234 13.9453 6.89234H7.05302C6.57721 6.89234 6.19148 6.50662 6.19148 6.0308Z" fill="#8C8989"/>
<path d="M7.05302 7.75388C6.57721 7.75388 6.19148 8.1396 6.19148 8.61542C6.19148 9.09123 6.57721 9.47696 7.05302 9.47696H11.3607C11.8365 9.47696 12.2222 9.09123 12.2222 8.61542C12.2222 8.1396 11.8365 7.75388 11.3607 7.75388H7.05302Z" fill="#8C8989"/>
<path fill-rule="evenodd" clip-rule="evenodd" d="M6.19148 19.8154H16.5299C17.9574 19.8154 19.1146 18.6582 19.1146 17.2308V3.44619C19.1146 2.01874 17.9574 0.861572 16.5299 0.861572H6.19148C3.81241 0.861572 1.88379 2.79019 1.88379 5.16926V15.5077C1.88379 17.8386 3.84382 19.8154 6.19148 19.8154ZM3.60687 5.16926C3.60687 3.74182 4.76404 2.58465 6.19148 2.58465H16.5299C17.0058 2.58465 17.3915 2.97037 17.3915 3.44619V12.2086C17.122 12.1134 16.832 12.0616 16.5299 12.0616H6.19148C5.22173 12.0616 4.32682 12.382 3.60687 12.9228V5.16926ZM17.3915 14.6462C17.3915 14.1704 17.0058 13.7846 16.5299 13.7846H6.19148C4.91081 13.7846 3.6426 14.692 3.6426 15.9385C3.6426 17.1586 4.91081 18.0923 6.19148 18.0923H16.5299C17.0058 18.0923 17.3915 17.7066 17.3915 17.2308V14.6462Z" fill="#8C8989"/>
</g>
</g>
</svg>
