<svg width="261" height="111" viewBox="0 0 261 111" fill="none" xmlns="http://www.w3.org/2000/svg">
<ellipse cx="130" cy="65.9768" rx="39.614" ry="40.4329" fill="#67949E"/>
<path d="M126.039 73.0586L144.245 52.5358L147.048 55.6925L126.039 79.3719L113.434 65.1647L116.234 62.008L126.039 73.0586Z" fill="white"/>
<path d="M30.0101 67.551C31.7544 66.854 33.0176 65.6516 33.8 63.944C34.5823 62.2363 34.6795 60.4915 34.0643 58.7189C34.6795 60.4915 35.8095 61.8104 37.4816 62.6662C39.1536 63.5221 40.8901 63.6833 42.6911 63.1499C40.9469 63.8469 39.6836 65.0492 38.9013 66.7569C38.5177 67.567 38.2992 68.4454 38.2585 69.3409C38.2178 70.2363 38.3557 71.1309 38.6642 71.9725C38.049 70.1999 36.919 68.881 35.2197 68.0346C33.5477 67.1788 31.8112 67.0176 30.0101 67.551ZM29.5496 45.7107C32.929 44.3545 35.3832 42.0055 36.9122 38.6636C38.4413 35.3218 38.6096 31.9328 37.4075 28.4694C38.6096 31.9328 40.8412 34.4889 44.1118 36.1649C47.3824 37.8409 50.7547 38.1372 54.2843 37.1261C52.0587 38.0207 50.2038 39.3673 48.7113 41.2298C47.2366 43.0555 46.2856 45.1578 45.849 47.5093C45.4396 49.8514 45.623 52.1406 46.418 54.4313C45.216 50.9679 42.975 48.3846 39.7044 46.7085C36.4243 45.0053 33.0425 44.6817 29.5496 45.7107ZM48.7971 71.9391C51.35 70.9309 53.2088 69.1552 54.3556 66.6488C55.5024 64.1424 55.6262 61.5939 54.7176 58.9759C55.6262 61.5939 57.3023 63.5178 59.7552 64.7748C62.2082 66.0318 64.74 66.2836 67.3686 65.4936C64.8157 66.5018 62.9843 68.268 61.8375 70.7744C60.6907 73.2808 60.5668 75.8293 61.4755 78.4473C60.5668 75.8293 58.8908 73.9054 56.4378 72.6484C54.0831 71.4173 51.3383 71.1625 48.7971 71.9391ZM62.8823 52.5672C65.4352 51.5589 67.2667 49.7927 68.4135 47.2863C69.5603 44.78 69.6568 42.2409 68.7387 39.5956C69.6474 42.2136 71.3234 44.1375 73.7764 45.3945C76.2293 46.6515 78.7885 46.8939 81.417 46.1038C78.8642 47.1121 77.0054 48.8877 75.8586 51.3941C74.7118 53.9005 74.588 56.449 75.4966 59.067C74.588 56.449 72.9119 54.5252 70.4863 53.2587C68.0428 52.0289 65.5109 51.7771 62.8823 52.5672Z" fill="#67949E" fill-opacity="0.6"/>
<path d="M179.675 50.8231C181.503 51.2575 183.228 51.0019 184.851 50.0562C186.474 49.1104 187.558 47.7398 188.076 45.9362C187.558 47.7398 187.722 49.4688 188.597 51.1313C189.471 52.7939 190.798 53.9256 192.578 54.5265C190.75 54.092 189.025 54.3477 187.402 55.2934C186.622 55.7349 185.937 56.3273 185.389 57.036C184.84 57.7447 184.437 58.5556 184.205 59.4213C184.723 57.6178 184.558 55.8887 183.656 54.2182C182.782 52.5557 181.455 51.424 179.675 50.8231ZM191.875 32.7008C195.418 33.5378 198.778 33.0304 201.952 31.1785C205.127 29.3266 207.216 26.6526 208.227 23.1287C207.216 26.6526 207.568 30.0275 209.277 33.2811C210.986 36.5347 213.573 38.7187 217.041 39.9244C214.706 39.3744 212.414 39.4073 210.122 40.0706C207.865 40.7142 205.877 41.8855 204.166 43.5568C202.482 45.236 201.314 47.2133 200.645 49.544C201.657 46.0201 201.312 42.6175 199.603 39.3639C197.902 36.0826 195.323 33.8708 191.875 32.7008ZM192.509 65.2287C195.177 65.8743 197.719 65.4927 200.1 64.1038C202.481 62.7149 204.05 60.7025 204.814 58.0387C204.05 60.7025 204.312 63.2405 205.594 65.6807C206.876 68.1209 208.801 69.7847 211.405 70.6523C208.737 70.0067 206.223 70.3962 203.842 71.7851C201.461 73.174 199.892 75.1865 199.128 77.8502C199.892 75.1865 199.63 72.6484 198.348 70.2082C197.131 67.8457 195.034 66.0569 192.509 65.2287ZM215.18 57.5002C217.848 58.1458 220.362 57.7563 222.743 56.3674C225.124 54.9784 226.665 52.958 227.437 50.2666C226.673 52.9303 226.936 55.4684 228.217 57.9086C229.499 60.3488 231.452 62.0205 234.056 62.8881C231.388 62.2425 228.846 62.624 226.465 64.013C224.084 65.4019 222.516 67.4143 221.751 70.078C222.516 67.4143 222.253 64.8762 220.999 62.444C219.709 60.0315 217.784 58.3678 215.18 57.5002Z" fill="#67949E" fill-opacity="0.6"/>
</svg>
