<svg width="15" height="15" viewBox="0 0 15 15" fill="none" xmlns="http://www.w3.org/2000/svg">
<path d="M14.2659 10.8227C14.9878 11.5505 14.9878 12.7279 14.2659 13.4536C13.9049 13.8175 13.4378 14.0123 12.9494 14.0123C12.4823 14.0123 12.0152 13.8411 11.6542 13.4536L7.87472 9.66674L4.09524 13.4536C3.73428 13.8175 3.26715 14.0123 2.77879 14.0123C2.31166 14.0123 1.8233 13.8175 1.46234 13.4536C0.740418 12.7279 0.740418 11.5505 1.46234 10.8013L5.24182 7.01231L1.46234 3.19977C0.740418 2.47408 0.740418 1.27531 1.46234 0.547477C2.18426 -0.182492 3.35208 -0.182492 4.09524 0.547477L7.87472 4.35573L11.633 0.547477C12.3761 -0.182492 13.5439 -0.182492 14.2659 0.547477C14.9878 1.27531 14.9878 2.47408 14.2659 3.19977L10.4864 7.01231L14.2659 10.8227Z" fill="white"/>
</svg>
