<svg width="17" height="20" viewBox="0 0 17 20" fill="none" xmlns="http://www.w3.org/2000/svg">
<path fill-rule="evenodd" clip-rule="evenodd" d="M7.9 15.8457L2.34571 18.8886C1.90225 19.119 1.35591 18.9559 1.11143 18.52V18.52C1.0407 18.385 1.00254 18.2353 1 18.0829V4.6C1 2.02857 2.75714 1 5.28571 1H11.2257C13.6771 1 15.5114 1.96 15.5114 4.42857V18.0829C15.5114 18.3261 15.4148 18.5594 15.2428 18.7314C15.0708 18.9034 14.8375 19 14.5943 19C14.4391 18.9975 14.2866 18.9594 14.1486 18.8886L8.56 15.8457C8.35407 15.7345 8.10593 15.7345 7.9 15.8457Z" stroke="#8C8989" stroke-width="1.5" stroke-linecap="round" stroke-linejoin="round"/>
<path d="M4.81427 7.12852H11.6457" stroke="#8C8989" stroke-width="1.5" stroke-linecap="round" stroke-linejoin="round"/>
</svg>
