<svg width="20" height="21" viewBox="0 0 20 21" fill="none" xmlns="http://www.w3.org/2000/svg">
<path d="M10 0.677002C11.3261 0.677002 12.5979 1.20379 13.5355 2.14147C14.4732 3.07915 15 4.35092 15 5.677C15 7.00308 14.4732 8.27485 13.5355 9.21254C12.5979 10.1502 11.3261 10.677 10 10.677C8.67392 10.677 7.40215 10.1502 6.46447 9.21254C5.52678 8.27485 5 7.00308 5 5.677C5 4.35092 5.52678 3.07915 6.46447 2.14147C7.40215 1.20379 8.67392 0.677002 10 0.677002ZM10 13.177C15.525 13.177 20 15.4145 20 18.177V20.677H0V18.177C0 15.4145 4.475 13.177 10 13.177Z" fill="#8C8989"/>
</svg>
