<svg width="21" height="28" viewBox="0 0 21 28" fill="none" xmlns="http://www.w3.org/2000/svg">
<g id="Shape">
<path fill-rule="evenodd" clip-rule="evenodd" d="M5.94444 1C5.6683 1 5.44444 1.22386 5.44444 1.5C5.44444 1.77614 5.6683 2 5.94444 2H14.8333C15.1095 2 15.3333 1.77614 15.3333 1.5C15.3333 1.22386 15.1095 1 14.8333 1H5.94444ZM3.61111 6.44444H17.1667V26.0556L3.61111 26.0556V6.44444ZM17.1667 4.83333C17.581 4.83333 17.9365 5.08534 18.0882 5.44444H19.2778C19.5539 5.44444 19.7778 5.6683 19.7778 5.94444C19.7778 6.22059 19.5539 6.44444 19.2778 6.44444H18.1667V26.0556C18.1667 26.6078 17.719 27.0556 17.1667 27.0556H3.61111C3.05883 27.0556 2.61111 26.6078 2.61111 26.0556V6.44444H1.5C1.22386 6.44444 1 6.22059 1 5.94444C1 5.6683 1.22386 5.44444 1.5 5.44444H2.68955C2.84127 5.08534 3.19676 4.83333 3.61111 4.83333H17.1667Z" fill="#37494E"/>
<path d="M17.1667 6.44444H17.6667V5.94444H17.1667V6.44444ZM3.61111 6.44444V5.94444H3.11111V6.44444H3.61111ZM17.1667 26.0556V26.5556H17.6667V26.0556H17.1667ZM3.61111 26.0556H3.11111V26.5556H3.61111L3.61111 26.0556ZM18.0882 5.44444L17.6277 5.63904L17.7567 5.94444H18.0882V5.44444ZM18.1667 6.44444V5.94444H17.6667V6.44444H18.1667ZM2.61111 6.44444H3.11111V5.94444H2.61111V6.44444ZM2.68955 5.44444V5.94444H3.02109L3.15012 5.63904L2.68955 5.44444ZM5.94444 1.5V0.5C5.39216 0.5 4.94444 0.947715 4.94444 1.5H5.94444ZM5.94444 1.5H4.94444C4.94444 2.05228 5.39216 2.5 5.94444 2.5V1.5ZM14.8333 1.5H5.94444V2.5H14.8333V1.5ZM14.8333 1.5V2.5C15.3856 2.5 15.8333 2.05228 15.8333 1.5H14.8333ZM14.8333 1.5H15.8333C15.8333 0.947715 15.3856 0.5 14.8333 0.5V1.5ZM5.94444 1.5H14.8333V0.5H5.94444V1.5ZM17.1667 5.94444H3.61111V6.94444H17.1667V5.94444ZM17.6667 26.0556V6.44444H16.6667V26.0556H17.6667ZM3.61111 26.5556L17.1667 26.5556V25.5556L3.61111 25.5556L3.61111 26.5556ZM3.11111 6.44444V26.0556H4.11111V6.44444H3.11111ZM18.5488 5.24985C18.3216 4.71218 17.789 4.33333 17.1667 4.33333V5.33333C17.3731 5.33333 17.5514 5.4585 17.6277 5.63904L18.5488 5.24985ZM19.2778 4.94444H18.0882V5.94444H19.2778V4.94444ZM20.2778 5.94444C20.2778 5.39216 19.8301 4.94444 19.2778 4.94444V5.94444H20.2778ZM19.2778 6.94444C19.8301 6.94444 20.2778 6.49673 20.2778 5.94444H19.2778V6.94444ZM18.1667 6.94444H19.2778V5.94444H18.1667V6.94444ZM18.6667 26.0556V6.44444H17.6667V26.0556H18.6667ZM17.1667 27.5556C17.9951 27.5556 18.6667 26.884 18.6667 26.0556H17.6667C17.6667 26.3317 17.4428 26.5556 17.1667 26.5556V27.5556ZM3.61111 27.5556H17.1667V26.5556H3.61111V27.5556ZM2.11111 26.0556C2.11111 26.884 2.78268 27.5556 3.61111 27.5556V26.5556C3.33497 26.5556 3.11111 26.3317 3.11111 26.0556H2.11111ZM2.11111 6.44444V26.0556H3.11111V6.44444H2.11111ZM1.5 6.94444H2.61111V5.94444H1.5V6.94444ZM0.5 5.94444C0.5 6.49673 0.947715 6.94444 1.5 6.94444V5.94444H0.5ZM1.5 4.94444C0.947715 4.94444 0.5 5.39216 0.5 5.94444H1.5V4.94444ZM2.68955 4.94444H1.5V5.94444H2.68955V4.94444ZM3.61111 4.33333C2.9888 4.33333 2.45613 4.71218 2.22897 5.24985L3.15012 5.63904C3.2264 5.4585 3.40472 5.33333 3.61111 5.33333V4.33333ZM17.1667 4.33333H3.61111V5.33333H17.1667V4.33333Z" fill="#37494E"/>
</g>
</svg>
