<svg width="15" height="15" viewBox="0 0 15 15" fill="none" xmlns="http://www.w3.org/2000/svg">
<g id="Download">
<path id="Shape" fill-rule="evenodd" clip-rule="evenodd" d="M7.50005 1.05005C7.74858 1.05005 7.95005 1.25152 7.95005 1.50005V8.41365L10.1819 6.18185C10.3576 6.00611 10.6425 6.00611 10.8182 6.18185C10.994 6.35759 10.994 6.64251 10.8182 6.81825L7.81825 9.81825C7.64251 9.99398 7.35759 9.99398 7.18185 9.81825L4.18185 6.81825C4.00611 6.64251 4.00611 6.35759 4.18185 6.18185C4.35759 6.00611 4.64251 6.00611 4.81825 6.18185L7.05005 8.41365V1.50005C7.05005 1.25152 7.25152 1.05005 7.50005 1.05005ZM2.5 10.0001C2.77614 10.0001 3 10.2239 3 10.5001V12.0001C3 12.5539 3.44565 13.0001 3.99635 13.0001H11.0012C11.5529 13.0001 12 12.5528 12 12.0001V10.5001C12 10.2239 12.2239 10.0001 12.5 10.0001C12.7761 10.0001 13 10.2239 13 10.5001V12.0001C13 13.1041 12.1062 14.0001 11.0012 14.0001H3.99635C2.89019 14.0001 2 13.103 2 12.0001V10.5001C2 10.2239 2.22386 10.0001 2.5 10.0001Z" fill="#343434"/>
</g>
</svg>
