<svg width="16" height="16" viewBox="0 0 16 16" fill="none" xmlns="http://www.w3.org/2000/svg">
<g id="Mixer Horizontal">
<path id="Shape" fill-rule="evenodd" clip-rule="evenodd" d="M6 3.5C5.17157 3.5 4.5 4.17157 4.5 5C4.5 5.82843 5.17157 6.5 6 6.5C6.82843 6.5 7.5 5.82843 7.5 5C7.5 4.17157 6.82843 3.5 6 3.5ZM3.5 5.5C3.51671 5.5 3.53323 5.49918 3.54952 5.49758C3.78022 6.6399 4.78967 7.5 6 7.5C7.21033 7.5 8.21978 6.6399 8.45048 5.49758C8.46677 5.49918 8.48329 5.5 8.5 5.5H14C14.2761 5.5 14.5 5.27614 14.5 5C14.5 4.72386 14.2761 4.5 14 4.5H8.5C8.48329 4.5 8.46677 4.50082 8.45048 4.50242C8.21978 3.36009 7.21033 2.5 6 2.5C4.78967 2.5 3.78022 3.36009 3.54952 4.50242C3.53323 4.50082 3.51671 4.5 3.5 4.5H2C1.72386 4.5 1.5 4.72386 1.5 5C1.5 5.27614 1.72386 5.5 2 5.5H3.5ZM12.4505 11.4976C12.2198 12.6399 11.2103 13.5 10 13.5C8.78967 13.5 7.78022 12.6399 7.54952 11.4976C7.53323 11.4992 7.51671 11.5 7.5 11.5H2C1.72386 11.5 1.5 11.2761 1.5 11C1.5 10.7239 1.72386 10.5 2 10.5H7.5C7.51671 10.5 7.53323 10.5008 7.54952 10.5024C7.78022 9.3601 8.78967 8.5 10 8.5C11.2103 8.5 12.2198 9.3601 12.4505 10.5024C12.4668 10.5008 12.4833 10.5 12.5 10.5H14C14.2761 10.5 14.5 10.7239 14.5 11C14.5 11.2761 14.2761 11.5 14 11.5H12.5C12.4833 11.5 12.4668 11.4992 12.4505 11.4976ZM8.5 11C8.5 10.1716 9.17157 9.5 10 9.5C10.8284 9.5 11.5 10.1716 11.5 11C11.5 11.8284 10.8284 12.5 10 12.5C9.17157 12.5 8.5 11.8284 8.5 11Z" fill="white"/>
</g>
</svg>
