<svg width="20" height="20" viewBox="0 0 20 20" fill="none" xmlns="http://www.w3.org/2000/svg">
<path d="M18.0473 8.55154H17.3928V8.51782H10.0803V11.7678H14.6722C14.0023 13.6597 12.2022 15.0178 10.0803 15.0178C7.3881 15.0178 5.20532 12.835 5.20532 10.1428C5.20532 7.4506 7.3881 5.26782 10.0803 5.26782C11.323 5.26782 12.4536 5.73663 13.3145 6.50242L15.6126 4.20426C14.1615 2.85185 12.2204 2.01782 10.0803 2.01782C5.59329 2.01782 1.95532 5.65579 1.95532 10.1428C1.95532 14.6299 5.59329 18.2678 10.0803 18.2678C14.5674 18.2678 18.2053 14.6299 18.2053 10.1428C18.2053 9.59804 18.1493 9.06626 18.0473 8.55154Z" fill="#FFC107"/>
<path d="M2.89209 6.36104L5.56156 8.31876C6.28387 6.53045 8.03318 5.26782 10.0803 5.26782C11.323 5.26782 12.4536 5.73663 13.3144 6.50242L15.6126 4.20426C14.1615 2.85185 12.2204 2.01782 10.0803 2.01782C6.95947 2.01782 4.25303 3.77973 2.89209 6.36104Z" fill="#FF3D00"/>
<path d="M10.0803 18.2679C12.179 18.2679 14.086 17.4647 15.5277 16.1586L13.013 14.0307C12.1699 14.6719 11.1396 15.0187 10.0803 15.0179C7.96701 15.0179 6.17261 13.6703 5.49661 11.7898L2.84705 13.8312C4.19173 16.4625 6.92255 18.2679 10.0803 18.2679Z" fill="#4CAF50"/>
<path d="M18.0473 8.55154H17.3928V8.51782H10.0803V11.7678H14.6722C14.3517 12.6682 13.7745 13.4551 13.0118 14.031L13.013 14.0302L15.5277 16.1582C15.3498 16.3199 18.2053 14.2053 18.2053 10.1428C18.2053 9.59804 18.1493 9.06626 18.0473 8.55154Z" fill="#1976D2"/>
</svg>
