<svg width="21" height="21" viewBox="0 0 21 21" fill="none" xmlns="http://www.w3.org/2000/svg">
<g id="home">
<path id="icon" fill-rule="evenodd" clip-rule="evenodd" d="M3.98993 10.1593C3.85867 10.4761 3.83366 10.638 3.83366 10.6769V17.3451C3.83366 17.8044 4.20576 18.1769 4.66699 18.1769H7.16699V13.1769C7.16699 12.2564 7.91318 11.5103 8.83366 11.5103H12.167C13.0875 11.5103 13.8337 12.2564 13.8337 13.1769V18.1769H16.3337C16.7949 18.1769 17.167 17.8044 17.167 17.3451V10.6769C17.167 10.638 17.142 10.4761 17.0107 10.1593C16.8888 9.86496 16.7039 9.50409 16.4626 9.09565C15.9806 8.28009 15.3045 7.32691 14.5476 6.41874C13.7891 5.50849 12.9702 4.66833 12.2088 4.06404C11.8282 3.76195 11.4784 3.53199 11.1716 3.38059C10.8579 3.22577 10.6371 3.17692 10.5003 3.17692C10.3636 3.17692 10.1428 3.22577 9.82908 3.38059C9.52229 3.53199 9.17243 3.76195 8.79181 4.06404C8.0304 4.66833 7.21156 5.50849 6.45301 6.41874C5.6962 7.32691 5.02 8.28009 4.53808 9.09565C4.29673 9.50409 4.11187 9.86496 3.98993 10.1593ZM9.0915 1.88601C9.52974 1.66974 10.0121 1.51025 10.5003 1.51025C10.9886 1.51025 11.4709 1.66974 11.9092 1.88601C12.3543 2.1057 12.8052 2.40959 13.2449 2.75855C14.1242 3.45635 15.0241 4.38702 15.828 5.35177C16.6337 6.31859 17.3638 7.34459 17.8975 8.24777C18.1639 8.69871 18.3892 9.13211 18.5505 9.52138C18.7024 9.88815 18.8337 10.2992 18.8337 10.6769V17.3451C18.8337 18.7268 17.7134 19.8436 16.3337 19.8436H13.8337C12.9132 19.8436 12.167 19.0974 12.167 18.1769V13.1769H8.83366V18.1769C8.83366 19.0974 8.08747 19.8436 7.16699 19.8436H4.66699C3.28727 19.8436 2.16699 18.7268 2.16699 17.3451V10.6769C2.16699 10.2992 2.29823 9.88815 2.45017 9.52138C2.61144 9.13211 2.83674 8.69871 3.1032 8.24777C3.6369 7.34459 4.36695 6.31859 5.17264 5.35177C5.9766 4.38702 6.8765 3.45635 7.75571 2.75855C8.1954 2.40959 8.64633 2.1057 9.0915 1.88601Z" fill="#8C8989"/>
</g>
</svg>
