<svg width="21" height="20" viewBox="0 0 21 20" fill="none" xmlns="http://www.w3.org/2000/svg">
<rect x="0.5" width="20" height="20" rx="10" fill="#60C54D"/>
<path fill-rule="evenodd" clip-rule="evenodd" d="M6.64645 13.8536C6.45118 13.6583 6.45118 13.3417 6.64645 13.1465L13.2929 6.5L9 6.5C8.72386 6.5 8.5 6.27614 8.5 6C8.5 5.72386 8.72386 5.5 9 5.5L14.5 5.5C14.6326 5.5 14.7598 5.55268 14.8536 5.64645C14.9473 5.74022 15 5.86739 15 6L15 11.5C15 11.7762 14.7761 12 14.5 12C14.2239 12 14 11.7762 14 11.5L14 7.20711L7.35355 13.8536C7.15829 14.0488 6.84171 14.0488 6.64645 13.8536Z" fill="white"/>
</svg>
