<svg width="22" height="21" viewBox="0 0 22 21" fill="none" xmlns="http://www.w3.org/2000/svg">
<g id="book">
<g id="icon">
<path d="M6.40773 6.09233C6.40773 5.61651 6.81756 5.23079 7.32312 5.23079H14.6462C15.1517 5.23079 15.5616 5.61651 15.5616 6.09233C15.5616 6.56814 15.1517 6.95387 14.6462 6.95387H7.32312C6.81756 6.95387 6.40773 6.56814 6.40773 6.09233Z" fill="#8C8989"/>
<path d="M7.32312 7.8154C6.81756 7.8154 6.40773 8.20113 6.40773 8.67694C6.40773 9.15276 6.81756 9.53848 7.32312 9.53848H11.9C12.4056 9.53848 12.8154 9.15276 12.8154 8.67694C12.8154 8.20113 12.4056 7.8154 11.9 7.8154H7.32312Z" fill="#8C8989"/>
<path fill-rule="evenodd" clip-rule="evenodd" d="M6.40773 19.8769H17.3923C18.909 19.8769 20.1385 18.7198 20.1385 17.2923V3.50771C20.1385 2.08027 18.909 0.923096 17.3923 0.923096H6.40773C3.87997 0.923096 1.83081 2.85171 1.83081 5.23079V15.5693C1.83081 17.9001 3.91334 19.8769 6.40773 19.8769ZM3.66158 5.23079C3.66158 3.80334 4.89107 2.64617 6.40773 2.64617H17.3923C17.8979 2.64617 18.3077 3.0319 18.3077 3.50771V12.2702C18.0214 12.1749 17.7133 12.1231 17.3923 12.1231H6.40773C5.37737 12.1231 4.42653 12.4435 3.66158 12.9843V5.23079ZM18.3077 14.7077C18.3077 14.2319 17.8979 13.8462 17.3923 13.8462H6.40773C5.04702 13.8462 3.69955 14.7535 3.69955 16C3.69955 17.2201 5.04702 18.1539 6.40773 18.1539H17.3923C17.8979 18.1539 18.3077 17.7681 18.3077 17.2923V14.7077Z" fill="#8C8989"/>
</g>
</g>
</svg>
