<svg width="15" height="16" viewBox="0 0 15 16" fill="none" xmlns="http://www.w3.org/2000/svg">
<path d="M9.75 5.33333V3.33333H4.75V5.33333H3.5V2H11V5.33333H9.75ZM11 8.33333C11.1771 8.33333 11.3256 8.26933 11.4456 8.14133C11.5656 8.01333 11.6254 7.85511 11.625 7.66667C11.625 7.47778 11.565 7.31933 11.445 7.19133C11.325 7.06333 11.1767 6.99956 11 7C10.8229 7 10.6744 7.064 10.5544 7.192C10.4344 7.32 10.3746 7.47822 10.375 7.66667C10.375 7.85556 10.435 8.014 10.555 8.142C10.675 8.27 10.8233 8.33378 11 8.33333ZM9.75 12.6667V10H4.75V12.6667H9.75ZM11 14H3.5V11.3333H1V7.33333C1 6.76667 1.18229 6.29156 1.54688 5.908C1.91146 5.52444 2.35417 5.33289 2.875 5.33333H11.625C12.1562 5.33333 12.6017 5.52511 12.9613 5.90867C13.3208 6.29222 13.5004 6.76711 13.5 7.33333V11.3333H11V14ZM12.25 10V7.33333C12.25 7.14444 12.19 6.986 12.07 6.858C11.95 6.73 11.8017 6.66622 11.625 6.66667H2.875C2.69792 6.66667 2.54938 6.73067 2.42938 6.85867C2.30938 6.98667 2.24958 7.14489 2.25 7.33333V10H3.5V8.66667H11V10H12.25Z" fill="#8498CB"/>
</svg>
