<svg width="15" height="14" viewBox="0 0 15 14" fill="none" xmlns="http://www.w3.org/2000/svg">
<path fill-rule="evenodd" clip-rule="evenodd" d="M5.275 3.82671C5.275 2.74312 6.35593 1.83506 7.5 1.83506C8.64406 1.83506 9.725 2.74312 9.725 3.82671C9.725 4.83359 9.21778 5.3048 8.51849 5.92494L8.4882 5.95179C7.79498 6.56623 6.925 7.33733 6.925 8.86671C6.925 9.18427 7.18244 9.44171 7.5 9.44171C7.81756 9.44171 8.075 9.18427 8.075 8.86671C8.075 7.87279 8.5794 7.40799 9.28151 6.78535L9.30233 6.76689C9.99977 6.14854 10.875 5.37256 10.875 3.82671C10.875 1.95965 9.11993 0.685059 7.5 0.685059C5.88007 0.685059 4.125 1.95965 4.125 3.82671C4.125 4.14428 4.38244 4.40171 4.7 4.40171C5.01756 4.40171 5.275 4.14428 5.275 3.82671ZM7.5 12.467C7.95103 12.467 8.31667 12.1014 8.31667 11.6504C8.31667 11.1993 7.95103 10.8337 7.5 10.8337C7.04897 10.8337 6.68333 11.1993 6.68333 11.6504C6.68333 12.1014 7.04897 12.467 7.5 12.467Z" fill="#8498CB"/>
</svg>
