<svg width="32" height="32" viewBox="0 0 32 32" fill="none" xmlns="http://www.w3.org/2000/svg">
<g id="send">
<path id="icon" fill-rule="evenodd" clip-rule="evenodd" d="M3.65533 13.9317C2.82677 12.6889 3.68808 11.0197 5.18111 10.9748L23.6638 10.4194C25.3154 10.3698 26.2407 12.3045 25.1654 13.5591L13.1316 27.5985C12.1595 28.7326 10.3195 28.3554 9.87204 26.9303L8.40932 22.2712C8.2703 21.8284 8.41322 21.3456 8.77083 21.0498L13.2956 17.307L7.54187 18.4801C7.08713 18.5728 6.62152 18.381 6.36408 17.9948L3.65533 13.9317ZM23.7209 12.321L5.23825 12.8764L7.66318 16.5138L16.271 14.7588C17.3383 14.5412 17.9862 15.8961 17.1469 16.5903L10.3777 22.1896L11.6871 26.3604L23.7209 12.321Z" fill="white"/>
</g>
</svg>
