<svg width="39" height="39" viewBox="0 0 39 39" fill="none" xmlns="http://www.w3.org/2000/svg">
<circle cx="19.0012" cy="19.75" r="19" fill="#67949E" fill-opacity="0.5"/>
<path d="M19.0013 10.1665C17.2221 10.1665 15.5159 10.8733 14.2578 12.1313C12.9997 13.3894 12.293 15.0957 12.293 16.8748C12.293 19.1557 13.4334 21.1586 15.168 22.3757V24.5415C15.168 24.7957 15.2689 25.0394 15.4487 25.2191C15.6284 25.3989 15.8721 25.4998 16.1263 25.4998H21.8763C22.1305 25.4998 22.3742 25.3989 22.5539 25.2191C22.7337 25.0394 22.8346 24.7957 22.8346 24.5415V22.3757C24.5692 21.1586 25.7096 19.1557 25.7096 16.8748C25.7096 15.0957 25.0029 13.3894 23.7448 12.1313C22.4868 10.8733 20.7805 10.1665 19.0013 10.1665ZM16.1263 28.3748C16.1263 28.629 16.2273 28.8728 16.407 29.0525C16.5867 29.2322 16.8305 29.3332 17.0846 29.3332H20.918C21.1721 29.3332 21.4159 29.2322 21.5956 29.0525C21.7753 28.8728 21.8763 28.629 21.8763 28.3748V27.4165H16.1263V28.3748Z" fill="#67949E"/>
</svg>
