<svg width="39" height="39" viewBox="0 0 39 39" fill="none" xmlns="http://www.w3.org/2000/svg">
<circle cx="19.0012" cy="19.75" r="19" fill="#F95DA0" fill-opacity="0.5"/>
<path d="M19.0012 10.1665C17.222 10.1665 15.5157 10.8733 14.2577 12.1313C12.9996 13.3894 12.2928 15.0957 12.2928 16.8748C12.2928 19.1557 13.4333 21.1586 15.1678 22.3757V24.5415C15.1678 24.7957 15.2688 25.0394 15.4485 25.2191C15.6283 25.3989 15.872 25.4998 16.1262 25.4998H21.8762C22.1303 25.4998 22.3741 25.3989 22.5538 25.2191C22.7335 25.0394 22.8345 24.7957 22.8345 24.5415V22.3757C24.5691 21.1586 25.7095 19.1557 25.7095 16.8748C25.7095 15.0957 25.0027 13.3894 23.7447 12.1313C22.4866 10.8733 20.7803 10.1665 19.0012 10.1665ZM16.1262 28.3748C16.1262 28.629 16.2271 28.8728 16.4069 29.0525C16.5866 29.2322 16.8303 29.3332 17.0845 29.3332H20.9178C21.172 29.3332 21.4158 29.2322 21.5955 29.0525C21.7752 28.8728 21.8762 28.629 21.8762 28.3748V27.4165H16.1262V28.3748Z" fill="#F95DA0"/>
</svg>
