<svg width="21" height="21" viewBox="0 0 21 21" fill="none" xmlns="http://www.w3.org/2000/svg">
<path d="M10.5001 18.4999C8.72092 18.4999 7.01463 17.7624 5.75657 16.4496C4.49852 15.1369 3.79175 13.3564 3.79175 11.4999C3.79175 9.64335 4.49852 7.86287 5.75657 6.55012C7.01463 5.23736 8.72092 4.49986 10.5001 4.49986C12.2792 4.49986 13.9855 5.23736 15.2436 6.55012C16.5016 7.86287 17.2084 9.64335 17.2084 11.4999C17.2084 13.3564 16.5016 15.1369 15.2436 16.4496C13.9855 17.7624 12.2792 18.4999 10.5001 18.4999ZM10.5001 2.49986C8.21259 2.49986 6.01879 3.44807 4.40129 5.1359C2.78378 6.82373 1.87508 9.11292 1.87508 11.4999C1.87508 13.8868 2.78378 16.176 4.40129 17.8638C6.01879 19.5517 8.21259 20.4999 10.5001 20.4999C12.7876 20.4999 14.9814 19.5517 16.5989 17.8638C18.2164 16.176 19.1251 13.8868 19.1251 11.4999C19.1251 9.11292 18.2164 6.82373 16.5989 5.1359C14.9814 3.44807 12.7876 2.49986 10.5001 2.49986ZM10.9792 6.49986H9.54175V12.4999L14.0938 15.3499L14.8126 14.1199L10.9792 11.7499V6.49986ZM6.55175 1.88986L5.32508 0.359863L0.916748 4.20986L2.153 5.73986L6.55175 1.88986ZM20.0834 4.21986L15.6751 0.359863L14.4388 1.88986L18.8472 5.74986L20.0834 4.21986Z" fill="white"/>
</svg>
