<svg width="39" height="39" viewBox="0 0 39 39" fill="none" xmlns="http://www.w3.org/2000/svg">
<circle cx="19.0012" cy="19.75" r="19" fill="#9C7269" fill-opacity="0.5"/>
<path d="M19.0012 11.75C20.0621 11.75 21.0795 12.1714 21.8296 12.9216C22.5798 13.6717 23.0012 14.6891 23.0012 15.75C23.0012 16.8109 22.5798 17.8283 21.8296 18.5784C21.0795 19.3286 20.0621 19.75 19.0012 19.75C17.9404 19.75 16.9229 19.3286 16.1728 18.5784C15.4226 17.8283 15.0012 16.8109 15.0012 15.75C15.0012 14.6891 15.4226 13.6717 16.1728 12.9216C16.9229 12.1714 17.9404 11.75 19.0012 11.75ZM19.0012 21.75C23.4212 21.75 27.0012 23.54 27.0012 25.75V27.75H11.0012V25.75C11.0012 23.54 14.5812 21.75 19.0012 21.75Z" fill="#9C7269"/>
</svg>
