<svg width="20" height="19" viewBox="0 0 20 19" fill="none" xmlns="http://www.w3.org/2000/svg">
<path d="M10.0365 6.95335V17.2363M10.0365 6.95335L13.3978 10.381M10.0365 6.95335L6.67522 10.381M16.1989 12.6661C17.9009 12.6661 19 11.2596 19 9.52409C18.9999 8.83698 18.779 8.16883 18.371 7.62198C17.9631 7.07513 17.3906 6.67972 16.7412 6.49633C16.6413 5.21491 16.1205 4.0053 15.263 3.06306C14.4055 2.12083 13.2614 1.50104 12.0158 1.30391C10.7701 1.10678 9.49565 1.34382 8.39844 1.97672C7.30123 2.60962 6.44542 3.60137 5.96935 4.79164C4.96704 4.50831 3.89541 4.64262 2.9902 5.16501C2.08499 5.6874 1.42036 6.55508 1.14252 7.57718C0.864679 8.59928 0.996383 9.69207 1.50866 10.6151C2.02094 11.5382 2.87183 12.216 3.87414 12.4993" stroke="#343434" stroke-opacity="0.5" stroke-width="2" stroke-linecap="round" stroke-linejoin="round"/>
</svg>
